<?xml version="1.0" standalone="no"?>
<!DOCTYPE svg PUBLIC "-//W3C//DTD SVG 20010904//EN"
 "http://www.w3.org/TR/2001/REC-SVG-20010904/DTD/svg10.dtd">
<svg version="1.0" xmlns="http://www.w3.org/2000/svg"
 width="1280.000000pt" height="720.000000pt" viewBox="0 0 1280.000000 720.000000"
 preserveAspectRatio="xMidYMid meet">

<g transform="translate(0.000000,720.000000) scale(0.100000,-0.100000)"
fill="#000000" stroke="none">
<path d="M2828 3843 c7 -3 16 -2 19 1 4 3 -2 6 -13 5 -11 0 -14 -3 -6 -6z"/>
<path d="M3253 3843 c-40 -5 -41 -13 -5 -40 15 -11 64 -52 110 -92 45 -39 90
-72 100 -73 23 -2 821 -3 819 -1 -1 1 -54 22 -117 48 -213 88 -337 126 -459
141 -121 15 -394 26 -448 17z"/>
<path d="M2788 3833 c7 -3 16 -2 19 1 4 3 -2 6 -13 5 -11 0 -14 -3 -6 -6z"/>
<path d="M2632 3780 c-93 -44 -154 -86 -252 -173 -134 -120 -336 -235 -552
-317 -49 -19 -86 -35 -84 -38 3 -2 69 22 148 53 227 90 363 169 513 300 106
91 197 153 280 188 33 15 53 26 45 26 -8 0 -53 -17 -98 -39z"/>
<path d="M2910 3804 c-56 -11 -189 -55 -195 -65 -4 -5 9 -27 29 -49 19 -21 45
-58 56 -81 l22 -41 141 6 c78 3 195 9 259 12 l118 6 -18 31 c-29 52 -106 124
-163 153 -45 23 -69 28 -139 30 -47 1 -96 0 -110 -2z"/>
<path d="M2595 3687 c-58 -31 -164 -122 -154 -132 3 -3 50 0 105 5 54 5 127
10 162 10 45 0 62 4 62 13 0 31 -86 138 -110 137 -3 0 -32 -15 -65 -33z"/>
<path d="M8155 3693 c-198 -26 -310 -142 -337 -348 -19 -152 14 -297 93 -396
19 -25 56 -51 104 -75 64 -31 86 -37 164 -42 104 -6 194 9 261 43 49 25 119
94 144 143 42 81 59 269 35 384 -15 70 -64 161 -108 200 -81 72 -225 108 -356
91z m145 -201 c20 -11 46 -38 60 -63 23 -40 25 -54 25 -164 0 -100 -3 -127
-20 -160 -28 -56 -75 -85 -140 -85 -68 0 -112 29 -145 95 -22 44 -25 63 -24
150 0 103 14 156 52 199 41 46 132 59 192 28z"/>
<path d="M9090 3689 c-85 -11 -178 -58 -229 -115 -84 -95 -122 -237 -104 -383
22 -170 80 -264 201 -323 65 -32 69 -33 197 -32 105 0 140 4 180 20 l50 20 3
92 c3 105 7 102 -83 71 -79 -26 -184 -27 -228 -2 -18 11 -43 39 -57 64 -23 40
-25 55 -25 159 0 100 3 121 22 157 49 91 128 112 257 69 43 -15 80 -25 81 -24
4 5 65 167 65 172 0 9 -108 44 -155 51 -97 12 -111 12 -175 4z"/>
<path d="M5577 3683 c-2 -5 -57 -172 -122 -373 -65 -201 -126 -389 -136 -418
l-18 -53 126 3 126 3 21 75 22 75 136 3 137 3 11 -41 c5 -22 15 -58 20 -80
l11 -40 124 0 c69 0 125 1 125 3 0 1 -63 191 -139 422 l-139 420 -150 3 c-83
1 -152 -1 -155 -5z m243 -490 c0 -2 -38 -3 -85 -3 -51 0 -85 4 -85 10 0 10 67
289 77 320 3 10 89 -292 93 -327z"/>
<path d="M9737 3682 c-3 -4 -64 -189 -137 -411 -72 -222 -134 -409 -137 -417
-4 -12 17 -14 121 -14 l125 0 15 53 c8 28 18 64 22 80 l6 27 138 0 138 0 19
-77 19 -78 126 -3 127 -3 -30 88 c-16 48 -79 240 -140 426 l-110 337 -149 0
c-82 0 -151 -3 -153 -8z m198 -327 l43 -165 -88 0 -87 0 41 169 c23 93 43 167
45 165 2 -2 23 -78 46 -169z"/>
<path d="M6250 3387 c0 -327 5 -363 63 -439 22 -29 56 -55 101 -78 68 -34 71
-35 190 -35 112 0 125 2 184 29 72 33 114 77 151 156 26 55 26 56 29 358 l4
302 -116 0 -116 0 0 -275 c0 -305 -6 -342 -61 -370 -37 -19 -102 -19 -140 1
-55 28 -59 54 -59 364 l0 280 -115 0 -115 0 0 -293z"/>
<path d="M7080 3590 l0 -90 105 0 105 0 0 -330 0 -330 115 0 115 0 0 330 0
330 100 0 100 0 0 90 0 90 -320 0 -320 0 0 -90z"/>
<path d="M10410 3261 l0 -421 115 0 115 0 0 156 0 155 28 -3 c23 -3 39 -23
116 -155 l89 -153 129 0 128 0 -121 181 -121 182 46 39 c83 72 112 166 83 269
-19 64 -60 108 -132 141 -46 21 -66 23 -262 26 l-213 4 0 -421z m367 215 c58
-67 3 -156 -97 -156 l-40 0 0 96 0 96 57 -4 c46 -4 61 -10 80 -32z"/>
<path d="M3845 3600 c-35 -6 -32 -7 30 -9 93 -2 255 -23 445 -56 186 -32 224
-50 333 -155 42 -42 77 -74 77 -71 0 2 -18 37 -40 77 -22 40 -40 79 -40 87 0
9 15 17 38 21 69 11 256 6 312 -9 78 -21 73 -12 -12 19 -169 60 -570 107 -896
105 -114 -1 -225 -5 -247 -9z"/>
<path d="M4178 3469 c-44 -25 3 -109 72 -130 22 -7 50 -8 67 -4 15 5 35 9 43
9 19 1 25 48 10 75 -6 12 -24 28 -41 37 -20 10 -28 11 -24 4 5 -8 3 -11 -6 -8
-8 3 -13 9 -12 14 2 13 -89 15 -109 3z m171 -45 c23 -29 27 -59 10 -70 -7 -4
-9 0 -5 14 5 13 -2 30 -20 51 -14 17 -21 31 -16 31 6 0 20 -12 31 -26z"/>
<path d="M4402 3468 c-19 -19 -14 -50 12 -89 42 -62 143 -92 166 -50 14 28 13
34 -16 77 -15 21 -19 32 -10 24 25 -20 48 -69 42 -88 -5 -14 -4 -14 8 1 8 10
12 27 9 38 -6 20 -58 66 -71 62 -4 -1 -21 7 -38 18 -35 21 -84 25 -102 7z"/>
<path d="M4708 3474 c-27 -8 -21 -43 20 -108 58 -93 61 -95 253 -102 119 -5
168 -4 173 4 6 10 0 41 -20 110 -3 9 9 -9 25 -40 35 -64 51 -79 51 -47 0 32
-38 107 -61 120 -12 6 -19 6 -19 0 0 -6 -11 1 -24 14 -13 13 -41 29 -62 36
-39 12 -303 22 -336 13z"/>
<path d="M3710 3364 c95 -36 118 -58 146 -143 13 -40 16 -76 12 -161 -4 -101
-7 -116 -39 -177 -26 -51 -44 -73 -74 -90 -33 -19 -36 -23 -17 -23 62 0 126
53 163 135 32 70 38 212 14 286 -36 109 -89 160 -180 173 -22 3 -33 3 -25 0z"/>
<path d="M2465 3220 c16 -56 35 -89 57 -103 19 -12 93 -16 403 -19 209 -3 371
-4 360 -2 -11 2 -177 13 -370 24 -383 23 -380 22 -431 90 -22 30 -25 32 -19
10z"/>
<path d="M2567 3050 c-27 -5 -52 -11 -55 -14 -3 -3 168 -5 379 -4 284 1 350 3
254 8 -241 14 -530 18 -578 10z"/>
<path d="M4016 2969 c3 -41 7 -75 8 -76 4 -6 295 -24 465 -29 225 -7 589 9
687 29 75 16 114 40 114 70 0 41 -13 49 -51 33 -77 -31 -182 -41 -449 -41
-146 0 -305 4 -353 9 -77 7 -93 12 -122 37 -32 28 -37 29 -170 36 l-137 6 8
-74z"/>
<path d="M3946 2960 c-22 -90 -80 -165 -151 -196 -28 -13 -26 -13 40 -14 93 0
134 13 174 54 l33 34 -41 7 -40 7 -3 71 c-3 64 -4 68 -12 37z"/>
<path d="M2198 2953 c6 -2 18 -2 25 0 6 3 1 5 -13 5 -14 0 -19 -2 -12 -5z"/>
<path d="M2260 2944 c8 -2 119 -20 245 -40 218 -35 244 -37 495 -40 146 -1
256 -1 245 1 -11 3 -117 11 -235 20 -118 9 -334 27 -480 41 -252 23 -304 26
-270 18z"/>
<path d="M4795 2830 l-200 -5 44 -33 c58 -42 140 -66 200 -58 53 7 159 56 186
86 18 20 18 20 -6 18 -13 -1 -114 -5 -224 -8z"/>
</g>
</svg>
