<?xml version="1.0" encoding="UTF-8"?>
<svg xmlns="http://www.w3.org/2000/svg" xmlns:xlink="http://www.w3.org/1999/xlink" viewBox="0 0 48 48" width="48px" height="48px">
<g id="surface20728304">
<path style="fill-rule:nonzero;fill:rgb(83.92157%,89.803922%,89.803922%);fill-opacity:1;stroke-width:10;stroke-linecap:butt;stroke-linejoin:round;stroke:rgb(80.000001%,80.000001%,80.000001%);stroke-opacity:1;stroke-miterlimit:10;" d="M 86.50641 210.719111 C 73.451597 210.719111 63.142135 210.930292 54.771696 207.071443 C 49.01222 204.422084 44.443036 201.369561 39.701067 197.817884 C 35.976606 194.995741 29.238019 189.447446 25.455963 183.323203 C 23.190569 179.61794 22.480234 175.682298 21.443528 172.24581 C 14.397769 148.497571 17.411895 123.098281 15.415276 99.69561 C 14.512958 89.270958 16.183207 78.673522 17.23911 68.325663 C 17.450291 66.175459 17.699869 63.986858 18.083834 61.836654 C 19.216531 55.17486 21.405132 49.146608 24.572843 43.905485 C 26.70385 40.430601 29.353209 37.1477 32.463326 34.133574 C 37.109303 29.660381 42.504012 26.051109 48.513066 23.382552 C 58.649744 18.870962 68.767223 17.757463 79.076685 16.931938 L 97.142242 15.511268 C 108.277229 14.60895 119.968966 13.668235 131.79509 14.090597 C 141.950966 14.455364 151.838067 15.184897 161.014832 15.895233 C 165.046465 16.221603 170.076408 16.624766 175.451919 18.429402 C 183.918349 21.289942 191.578452 27.260599 197.049954 35.227874 C 201.062389 41.083341 205.266807 46.842818 207.225029 55.05967 C 209.62481 65.196348 208.664898 76.004965 208.952871 84.605783 C 209.048863 87.197547 209.125656 89.750915 209.260044 92.304282 C 209.567216 98.313336 209.835991 104.303191 210.008775 110.273848 C 210.431137 124.576547 210.277551 136.479464 209.509621 147.748839 C 208.588105 161.47559 209.087259 179.137984 197.721893 191.252082 C 182.094515 207.858571 156.63763 211.928601 140.971855 212.120583 L 139.320805 212.139782 C 139.320805 212.139782 136.19149 212.101385 134.65563 212.082187 L 130.604798 212.04379 C 124.288573 212.062989 117.953149 210.239154 111.406545 210.8343 C 105.800655 211.352653 100.809109 210.239154 95.779166 210.469533 C 92.822635 210.603921 89.712518 210.719111 86.50641 210.719111 Z M 125.651649 30.639492 C 116.494082 30.639492 107.259722 31.388223 98.313336 32.117757 L 80.247779 33.51923 C 71.320591 34.229565 63.468505 35.458253 55.539627 38.971534 C 51.181623 40.891359 47.725937 43.099158 44.385441 46.305266 C 42.235237 48.378678 40.488196 50.701667 39.067525 53.043854 C 36.898122 56.59553 35.343064 59.340881 34.517539 64.082849 C 34.229565 65.868287 34.018384 67.692121 33.826402 69.496757 C 32.828092 79.422254 32.232947 89.520535 32.079361 99.542024 C 31.772188 121.773602 32.367334 145.329859 38.817948 167.08148 C 39.528283 169.423667 40.641782 171.170708 42.043254 173.4553 C 44.270252 177.102969 47.668343 179.656336 50.682468 181.92173 C 54.867688 185.070244 58.68814 187.834792 63.065342 189.850609 C 69.343171 192.730347 76.254542 193.075916 86.986366 193.075916 C 89.923699 193.075916 92.822635 192.979924 95.529589 192.845537 C 100.46354 192.615158 105.378293 192.173598 110.312244 191.732038 C 117.338805 191.098496 123.866211 190.50335 130.873574 190.484151 C 132.102262 190.484151 133.292554 190.50335 134.482846 190.522548 L 135.173983 190.522548 C 136.671446 190.560944 138.111315 190.580143 139.570383 190.580143 L 141.106243 190.580143 C 153.911478 190.407358 170.748347 189.562635 182.344092 177.256555 C 190.349764 168.713332 191.367271 157.789525 192.096805 146.808124 C 192.826338 136.037904 192.979924 124.614943 192.576761 110.830597 C 192.403977 104.955931 192.135201 99.062068 191.847227 93.187402 C 191.71284 90.538043 191.616848 87.888684 191.520857 85.220127 C 191.252082 77.348843 191.290478 68.863215 189.236265 60.243199 C 187.719603 53.907775 185.070244 49.703357 182.152109 45.460543 C 178.562036 40.238618 175.586307 36.418166 170.287589 34.632728 C 166.735912 33.423238 163.145838 33.07767 159.632558 32.789696 C 150.628577 32.079361 141.067847 31.081051 131.180746 30.716285 C 129.337714 30.65869 127.494681 30.639492 125.651649 30.639492 Z M 125.651649 30.639492 " transform="matrix(0.203469,0,0,0.203469,1.008,1.008)"/>
<path style="fill-rule:nonzero;fill:rgb(0.392157%,0.392157%,0.392157%);fill-opacity:1;stroke-width:10;stroke-linecap:butt;stroke-linejoin:round;stroke:rgb(80.000001%,80.000001%,80.000001%);stroke-opacity:1;stroke-miterlimit:10;" d="M 86.468013 194.995741 C 77.617618 194.995741 68.920809 194.112621 61.683068 190.772125 C 57.286668 188.756309 53.504612 186.010958 49.338591 182.881643 C 46.343663 180.616249 42.96477 178.08208 40.756971 174.472808 C 39.355499 172.188216 38.529974 169.61565 37.858035 167.388652 C 31.407422 145.675427 30.812276 122.138368 31.138646 99.925989 C 31.292232 89.923699 31.86818 79.825417 32.885687 69.919118 C 33.058471 68.095284 33.269652 66.290649 33.576824 64.486013 C 34.383151 59.782441 35.880615 55.597221 38.030819 52.064743 C 39.432292 49.741754 41.236928 47.514756 43.387132 45.441345 C 46.689232 42.254435 50.548081 39.681869 54.886886 37.742845 C 62.738972 34.248763 71.416582 33.327247 80.324572 32.597713 L 98.37093 31.196241 C 109.102754 30.313121 120.218543 29.410803 131.238341 29.813967 C 141.048648 30.159535 150.743766 30.869871 159.766946 31.580206 C 163.280226 31.848981 166.889498 32.136955 170.421976 33.327247 C 175.6631 35.112685 180.520258 38.933137 184.071935 44.135864 C 186.970871 48.340281 189.101877 53.466215 190.599341 59.782441 C 192.672752 68.421655 192.960726 77.310446 193.229502 85.143334 L 193.2487 85.892066 C 193.344691 88.291847 193.421484 90.710827 193.536674 93.110609 C 193.843846 98.985275 194.112621 104.85994 194.285406 110.753804 C 194.688569 124.595745 194.534983 136.018706 193.805449 146.692935 C 193.075916 157.616741 191.252082 169.961218 183.265608 178.446846 C 171.746656 190.695332 153.393125 192.327184 140.58789 192.48077 C 138.668065 192.499968 136.748239 192.48077 134.847612 192.442373 C 133.254157 192.423175 131.718297 192.384779 130.067247 192.403977 C 123.290264 192.423175 116.398091 193.037519 109.736297 193.651863 C 104.936733 194.074225 99.964385 194.534983 95.049633 194.746164 C 92.208291 194.89975 89.328553 194.995741 86.468013 194.995741 Z M 125.74764 34.440746 C 116.724461 34.440746 107.624489 35.170279 98.754895 35.899813 L 80.727735 37.301286 C 71.896539 38.011621 63.986858 38.856344 56.806711 42.062452 C 52.986259 43.751899 49.56897 46.036491 46.670033 48.839436 C 44.807803 50.624874 43.252744 52.544699 42.062452 54.522119 C 40.21942 57.536245 38.933137 61.164715 38.222802 65.273141 C 37.934828 66.962587 37.742845 68.671232 37.570061 70.399075 C 36.571752 80.170986 35.995804 90.115681 35.861417 100.002782 C 35.535046 121.831196 36.110994 144.945894 42.388823 166.044775 C 42.983969 168.079789 43.655907 170.210796 44.769406 172.015431 C 46.516447 174.856773 49.396185 177.026176 52.179932 179.118785 C 56.115574 182.075316 59.686449 184.686279 63.660488 186.510113 C 72.3189 190.484151 83.761059 190.560944 94.838452 190.06179 C 99.657213 189.831411 104.571966 189.389851 109.313935 188.967489 C 116.090919 188.353145 123.079083 187.719603 130.048049 187.700405 C 131.699099 187.700405 133.292554 187.719603 134.924405 187.738801 C 136.786636 187.777198 138.668065 187.815594 140.511097 187.796396 C 153.489117 187.623612 169.673244 186.049355 179.848319 175.22154 C 186.798087 167.811014 188.429938 156.484044 189.121075 146.366565 C 189.831411 135.86512 189.984997 124.595745 189.581834 110.888192 C 189.409049 105.051923 189.140274 99.196455 188.8523 93.340988 C 188.73711 90.922008 188.641119 88.48383 188.564326 86.045652 L 188.52593 85.316118 C 188.52593 85.316118 188.52593 85.316118 188.52593 85.29692 C 188.276352 77.694411 187.988378 69.055197 186.030157 60.876741 C 184.667081 55.136463 182.766453 50.528882 180.193887 46.804421 C 177.218158 42.446418 173.205723 39.240309 168.924513 37.80044 C 165.948783 36.802131 162.627485 36.533355 159.402179 36.283778 C 150.436594 35.573443 140.799071 34.882306 131.065556 34.536737 C 129.299317 34.459944 127.533078 34.440746 125.74764 34.440746 Z M 125.74764 34.440746 " transform="matrix(0.203469,0,0,0.203469,1.008,1.008)"/>
<path style="fill-rule:nonzero;fill:rgb(0.392157%,0.392157%,0.392157%);fill-opacity:1;stroke-width:10;stroke-linecap:butt;stroke-linejoin:round;stroke:rgb(80.000001%,80.000001%,80.000001%);stroke-opacity:1;stroke-miterlimit:10;" d="M 123.175074 214.443572 C 118.4907 214.443572 113.787128 214.328382 109.121952 214.098003 C 104.879138 213.906021 100.597928 213.445263 96.451105 213.003703 C 92.285084 212.562143 87.965477 212.082187 83.741861 211.909403 L 79.057487 211.71742 C 72.088521 211.467843 64.889176 211.199067 57.785822 210.027974 C 53.293431 209.29844 48.551462 208.280933 44.404639 205.765961 C 41.390514 203.961326 38.971534 201.561544 36.629347 199.238555 L 27.759753 190.445755 C 25.571153 188.295551 23.324957 186.068553 21.635511 183.284806 C 19.65809 179.982707 18.717376 176.31584 18.064635 173.167327 C 15.722448 162.013141 15.588061 150.628577 15.799241 139.973546 C 15.933629 133.407743 15.357682 126.726751 14.800932 120.25694 C 14.474562 116.436487 14.148192 112.616035 13.956209 108.757186 C 13.476253 99.138861 13.188279 89.386148 13.092288 79.767823 C 12.996296 68.133681 13.341865 55.885195 18.678979 45.326156 C 23.632129 35.477451 33.000877 27.260599 45.05738 22.173062 C 56.38435 17.392696 68.594439 15.780043 79.057487 14.839329 C 82.628362 14.512958 86.218436 14.16739 89.789311 13.802623 C 97.238233 13.092288 104.936733 12.324358 112.539242 11.825203 C 120.276138 11.326048 128.28181 11.959591 136.037904 12.573935 C 139.263211 12.823512 142.469319 13.073089 145.637031 13.245874 C 158.826231 13.956209 173.781671 14.762536 186.471716 21.654709 C 199.238555 28.585278 208.434519 41.256126 211.083878 55.539627 C 212.370161 62.4318 212.542945 69.400766 212.542945 74.718682 C 212.542945 77.464032 212.504548 80.209382 212.446954 82.954733 C 212.408557 85.62329 212.350962 88.291847 212.350962 90.941206 C 212.350962 96.988656 212.523747 103.112899 212.677333 109.275538 C 213.022901 122.503135 213.387668 136.172292 212.120583 149.361492 C 210.987886 161.091625 208.53051 172.668172 204.844445 183.745564 C 203.961326 186.375725 202.963016 189.159472 201.177579 191.559254 C 199.276952 194.151018 196.685187 196.032447 194.400595 197.702695 C 188.545128 201.945509 182.47848 206.361107 175.413522 208.895277 C 170.517968 210.661516 165.296043 211.429446 160.803651 212.005394 C 148.363183 213.637245 135.74993 214.443572 123.175074 214.443572 Z M 118.4907 16.375189 C 116.590073 16.375189 114.708644 16.413586 112.846414 16.547973 C 105.320698 17.02793 97.641397 17.776662 90.230871 18.506195 C 86.659996 18.851764 83.069922 19.197332 79.479849 19.523703 C 69.381567 20.445219 57.613038 21.981079 46.881214 26.511867 C 35.861417 31.177043 27.337392 38.606767 22.864199 47.437963 C 18.026239 57.075487 17.699869 68.210474 17.815058 79.729426 C 17.891851 89.270958 18.179825 98.966076 18.659781 108.507608 C 18.851764 112.308863 19.178134 116.090919 19.504504 119.853776 C 20.061254 126.438777 20.637201 133.234959 20.522012 140.050339 C 20.310831 150.417396 20.426021 161.494788 22.672216 172.188216 C 23.248164 174.952764 24.073689 178.158873 25.686342 180.846628 C 27.068616 183.112022 29.103631 185.147037 31.081051 187.105259 L 39.950645 195.878861 C 42.100849 198.009867 44.308648 200.198468 46.842818 201.71513 C 50.317702 203.807739 54.522119 204.710057 58.553752 205.362798 C 65.349934 206.476297 72.414891 206.745072 79.24947 206.99465 L 83.953042 207.186632 C 88.311045 207.378615 92.707446 207.858571 96.969458 208.300131 C 101.039488 208.741691 105.243905 209.18325 109.352331 209.394431 C 126.304389 210.200758 143.390835 209.509621 160.208505 207.340218 C 164.470518 206.783469 169.366072 206.053935 173.820067 204.46048 C 180.27068 202.15669 186.049355 197.952272 191.636047 193.882242 C 193.747855 192.346382 195.936455 190.772125 197.414721 188.775507 C 198.777797 186.894078 199.641718 184.532693 200.39045 182.248101 C 203.961326 171.497079 206.341909 160.285298 207.436209 148.900734 C 208.684096 135.999508 208.338527 122.464739 207.992959 109.390728 C 207.820174 103.189692 207.666588 97.027053 207.666588 90.922008 C 207.666588 88.272649 207.704985 85.565695 207.76258 82.858741 C 207.800976 80.151788 207.839373 77.444834 207.839373 74.718682 C 207.839373 69.611946 207.685787 62.892558 206.476297 56.38435 C 204.13411 43.675106 195.610085 31.944973 184.244719 25.801532 C 172.47619 19.408513 158.096698 18.621385 145.406652 17.949446 C 142.200543 17.776662 138.956039 17.507886 135.673137 17.258309 C 129.971256 16.816749 124.154185 16.375189 118.4907 16.375189 Z M 118.4907 16.375189 " transform="matrix(0.203469,0,0,0.203469,1.008,1.008)"/>
<path style="fill-rule:nonzero;fill:rgb(83.92157%,89.803922%,89.803922%);fill-opacity:1;stroke-width:10;stroke-linecap:butt;stroke-linejoin:round;stroke:rgb(80.000001%,80.000001%,80.000001%);stroke-opacity:1;stroke-miterlimit:10;" d="M 172.053828 58.822528 C 172.648974 61.318301 172.303405 64.063651 170.901933 66.194657 C 166.678317 72.626072 156.138476 68.767223 153.12435 63.007747 C 151.319714 59.609656 152.087644 54.810093 155.332149 52.75588 C 159.632558 50.029728 165.200051 50.528882 168.770927 53.52381 C 170.345183 54.829291 171.516277 56.614729 172.053828 58.822528 Z M 172.053828 58.822528 " transform="matrix(0.203469,0,0,0.203469,1.008,1.008)"/>
<path style="fill-rule:nonzero;fill:rgb(0.392157%,0.392157%,0.392157%);fill-opacity:1;stroke-width:10;stroke-linecap:butt;stroke-linejoin:round;stroke:rgb(80.000001%,80.000001%,80.000001%);stroke-opacity:1;stroke-miterlimit:10;" d="M 164.374526 71.87734 C 164.163346 71.87734 163.952165 71.87734 163.740984 71.87734 C 158.61505 71.627763 153.258738 68.36406 151.03174 64.102048 C 148.535967 59.379277 149.899043 53.389422 154.084263 50.759261 C 159.114205 47.572351 165.775999 47.956316 170.26839 51.699976 C 172.303405 53.40862 173.704878 55.674014 174.33842 58.265779 C 175.10635 61.529482 174.568799 64.889176 172.860155 67.500139 C 170.978726 70.34148 168.002996 71.87734 164.374526 71.87734 Z M 161.552383 53.331827 C 159.82454 53.331827 158.077499 53.792585 156.599234 54.7333 C 154.525822 56.038781 153.873082 59.398475 155.197761 61.913447 C 156.656828 64.697193 160.515677 67.000984 163.971363 67.173768 C 166.121568 67.231363 167.868609 66.501829 168.924513 64.908374 C 169.922822 63.41091 170.229994 61.318301 169.769236 59.360079 C 169.385271 57.766624 168.502151 56.365151 167.254265 55.309247 C 165.680008 54.003766 163.625795 53.331827 161.552383 53.331827 Z M 161.552383 53.331827 " transform="matrix(0.203469,0,0,0.203469,1.008,1.008)"/>
<path style="fill-rule:nonzero;fill:rgb(83.92157%,89.803922%,89.803922%);fill-opacity:1;stroke-width:10;stroke-linecap:butt;stroke-linejoin:round;stroke:rgb(80.000001%,80.000001%,80.000001%);stroke-opacity:1;stroke-miterlimit:10;" d="M 114.900627 159.286989 C 106.875757 159.286989 98.390129 160.285298 91.574749 156.580035 C 87.581512 154.410633 84.586584 152.35642 82.474776 150.455793 C 81.630053 149.707061 78.923099 147.288081 78.308755 146.904116 C 66.943389 139.781564 63.986858 122.695118 64.40922 111.924897 C 64.658797 105.320698 66.8282 99.983584 68.421655 96.086338 C 70.571859 90.749224 73.547588 83.434689 79.633435 77.195257 C 86.372022 70.34148 95.548787 66.213856 106.203818 65.253943 C 110.369839 64.869978 114.708644 65.004366 118.989855 65.61871 C 128.377801 66.981786 136.997817 70.418273 143.909188 75.582603 C 152.529204 82.014018 158.461464 91.017999 160.630867 100.943496 C 164.489716 118.721079 157.463155 138.764056 143.525223 149.687862 C 135.615542 155.888898 125.459666 159.286989 114.900627 159.286989 Z M 112.136078 82.474776 C 111.02258 82.474776 108.949168 83.165914 107.816471 83.261905 C 100.866703 83.895447 97.430216 83.933844 93.302591 88.119063 C 89.366949 92.150696 87.370331 97.411018 85.5081 102.037797 C 84.241016 105.18631 81.66845 109.102754 81.534062 113 C 81.284485 119.412216 84.74017 126.093209 90.653232 129.798472 C 92.131498 130.719988 92.55386 133.042977 93.955332 134.310061 C 95.721571 135.903516 98.428525 136.441067 100.78991 137.72735 C 111.310553 143.429232 123.213471 142.642103 132.371038 135.461956 C 141.509406 128.301008 145.521841 116.609271 142.968474 104.821544 C 141.605398 98.543715 139.148021 92.976221 133.522933 88.771804 C 128.684973 85.162532 123.232669 84.509791 116.398091 83.53068 C 114.459067 83.242707 114.055904 82.474776 112.136078 82.474776 Z M 112.136078 82.474776 " transform="matrix(0.203469,0,0,0.203469,1.008,1.008)"/>
<path style="fill-rule:nonzero;fill:rgb(0.392157%,0.392157%,0.392157%);fill-opacity:1;stroke-width:10;stroke-linecap:butt;stroke-linejoin:round;stroke:rgb(80.000001%,80.000001%,80.000001%);stroke-opacity:1;stroke-miterlimit:10;" d="M 114.881429 143.56362 C 109.640305 143.56362 104.341587 142.334931 99.676412 139.800762 C 97.334225 138.533677 95.471994 136.863429 93.686557 135.250776 C 92.265886 133.964493 90.922008 132.735804 89.405346 131.79509 C 83.549879 128.128224 79.883012 118.874665 80.132589 112.539242 C 80.266977 108.699591 81.706846 105.147914 82.973931 102.018599 C 84.836162 97.411018 86.967168 92.208291 90.864413 88.215054 C 94.934443 84.068231 100.732316 81.534062 107.624489 80.919718 C 110.561821 80.650942 113.633542 80.746934 116.724461 81.188493 C 123.539841 82.167604 129.683282 84.586584 134.502044 88.195856 C 140.088736 92.342679 143.909188 98.082957 145.253066 104.303191 C 147.806434 116.014126 142.891681 130.201635 133.830105 137.304989 C 128.550585 141.451812 121.735205 143.56362 114.881429 143.56362 Z M 94.224108 91.517154 C 90.960404 94.838452 89.117372 99.388438 87.351133 103.784838 C 86.160841 106.702972 84.951351 109.717098 84.836162 112.712026 C 84.644179 117.530788 87.696701 125.171693 91.901119 127.801853 C 93.76335 128.972947 95.318408 130.393617 96.83507 131.756694 C 98.505318 133.254157 100.079575 134.65563 101.903409 135.653939 C 110.964985 140.549494 123.155876 139.685572 130.91197 133.599726 C 138.668065 127.552276 142.853284 115.380583 140.664683 105.3015 C 139.551184 100.271558 136.287481 95.395201 131.6799 91.958714 C 127.475483 88.829398 122.080774 86.71759 116.052522 85.853669 C 113.32637 85.469704 110.619416 85.373713 108.04685 85.604092 C 104.015217 85.968859 98.37093 87.293538 94.224108 91.517154 Z M 94.224108 91.517154 " transform="matrix(0.203469,0,0,0.203469,1.008,1.008)"/>
<path style="fill-rule:nonzero;fill:rgb(0.392157%,0.392157%,0.392157%);fill-opacity:1;stroke-width:10;stroke-linecap:butt;stroke-linejoin:round;stroke:rgb(80.000001%,80.000001%,80.000001%);stroke-opacity:1;stroke-miterlimit:10;" d="M 112.347259 162.992252 C 104.322389 162.992252 96.566295 161.398797 89.539734 158.269482 C 76.27374 152.35642 66.540226 141.528605 63.487704 129.318515 C 61.145517 119.949768 62.738972 110.446632 64.370823 103.20889 C 65.695503 97.334225 67.9225 88.771804 71.723754 82.359587 C 75.006656 76.811292 79.441452 71.934935 84.567386 68.229672 C 87.888684 65.82989 91.305973 64.044453 94.723262 62.911756 C 94.723262 62.911756 95.164822 62.777368 95.18402 62.75817 C 104.994328 59.705648 115.783746 61.606275 124.442159 63.142135 C 135.903516 65.17715 147.84483 74.065941 154.602615 81.99482 C 156.445648 84.164223 157.731931 86.026453 158.672645 87.92708 C 160.70766 91.958714 161.302806 96.431907 161.629176 100.636324 C 162.589089 112.673629 161.552383 122.944695 158.480663 132.063866 C 153.623504 146.424159 144.389144 156.080881 131.756694 159.978126 C 125.286882 161.993943 118.740278 162.973054 112.347259 162.992252 Z M 95.894356 65.004366 L 96.220726 67.384949 C 93.225798 68.36406 90.250069 69.938317 87.312736 72.050125 C 82.705155 75.371423 78.731117 79.767823 75.774586 84.759369 C 72.3189 90.595638 70.226291 98.678102 68.959206 104.245596 C 67.442544 110.984183 65.964278 119.776983 68.056888 128.16662 C 70.763842 139.013633 79.518245 148.651157 91.459559 153.969073 C 103.016908 159.133403 116.83965 159.670954 130.374419 155.485735 C 144.427541 151.14693 150.993344 139.512788 154.026668 130.547204 C 156.887208 122.042377 157.84712 112.385656 156.944802 101.020289 C 156.63763 97.27663 156.138476 93.360186 154.468228 90.038888 C 153.700297 88.48383 152.605997 86.909573 151.03174 85.047342 C 145.022687 78.001583 133.868501 69.592748 123.635832 67.768914 C 115.035015 66.252252 105.3015 64.524409 96.604691 67.250561 Z M 95.894356 65.004366 " transform="matrix(0.203469,0,0,0.203469,1.008,1.008)"/>
<path style=" stroke:none;fill-rule:nonzero;fill:rgb(83.92157%,89.803922%,89.803922%);fill-opacity:1;" d="M 18.609375 43.882812 C 15.953125 43.882812 13.855469 43.925781 12.152344 43.140625 C 10.980469 42.601562 10.050781 41.980469 9.085938 41.257812 C 8.328125 40.683594 6.957031 39.554688 6.1875 38.308594 C 5.726562 37.554688 5.582031 36.753906 5.371094 36.054688 C 3.9375 31.222656 4.550781 26.054688 4.144531 21.292969 C 3.960938 19.171875 4.300781 17.015625 4.515625 14.910156 C 4.558594 14.472656 4.609375 14.027344 4.6875 13.589844 C 4.917969 12.234375 5.363281 11.007812 6.007812 9.941406 C 6.441406 9.234375 6.980469 8.566406 7.613281 7.953125 C 8.558594 7.042969 9.65625 6.308594 10.878906 5.765625 C 12.941406 4.847656 15 4.621094 17.097656 4.453125 L 20.773438 4.164062 C 23.039062 3.980469 25.417969 3.789062 27.824219 3.875 C 29.890625 3.949219 31.902344 4.097656 33.769531 4.242188 C 34.589844 4.308594 35.613281 4.390625 36.707031 4.757812 C 38.429688 5.339844 39.988281 6.554688 41.101562 8.175781 C 41.917969 9.367188 42.773438 10.539062 43.171875 12.210938 C 43.660156 14.273438 43.464844 16.472656 43.523438 18.222656 C 43.542969 18.75 43.558594 19.269531 43.585938 19.789062 C 43.648438 21.011719 43.703125 22.230469 43.738281 23.445312 C 43.824219 26.355469 43.792969 28.777344 43.636719 31.070312 C 43.449219 33.863281 43.550781 37.457031 41.238281 39.921875 C 38.058594 43.300781 32.878906 44.128906 29.691406 44.167969 L 29.355469 44.171875 C 29.355469 44.171875 28.71875 44.164062 28.40625 44.160156 L 27.582031 44.152344 C 26.296875 44.15625 25.007812 43.785156 23.675781 43.90625 C 22.535156 44.011719 21.519531 43.785156 20.496094 43.832031 C 19.894531 43.859375 19.261719 43.882812 18.609375 43.882812 Z M 26.574219 7.242188 C 24.710938 7.242188 22.832031 7.394531 21.011719 7.542969 L 17.335938 7.828125 C 15.519531 7.972656 13.921875 8.222656 12.308594 8.9375 C 11.421875 9.328125 10.71875 9.777344 10.039062 10.429688 C 9.601562 10.851562 9.246094 11.324219 8.957031 11.800781 C 8.515625 12.523438 8.199219 13.082031 8.03125 14.046875 C 7.972656 14.410156 7.929688 14.78125 7.890625 15.148438 C 7.6875 17.167969 7.566406 19.222656 7.535156 21.261719 C 7.472656 25.785156 7.59375 30.578125 8.90625 35.003906 C 9.050781 35.480469 9.277344 35.835938 9.5625 36.300781 C 10.015625 37.042969 10.707031 37.5625 11.320312 38.023438 C 12.171875 38.664062 12.949219 39.226562 13.839844 39.636719 C 15.117188 40.222656 16.523438 40.292969 18.707031 40.292969 C 19.304688 40.292969 19.894531 40.273438 20.445312 40.246094 C 21.449219 40.199219 22.449219 40.109375 23.453125 40.019531 C 24.882812 39.890625 26.210938 39.769531 27.636719 39.765625 C 27.886719 39.765625 28.128906 39.769531 28.371094 39.773438 L 28.511719 39.773438 C 28.816406 39.78125 29.109375 39.785156 29.40625 39.785156 L 29.71875 39.785156 C 32.324219 39.75 35.75 39.578125 38.109375 37.074219 C 39.738281 35.335938 39.945312 33.113281 40.09375 30.878906 C 40.242188 28.6875 40.273438 26.363281 40.191406 23.558594 C 40.15625 22.363281 40.101562 21.164062 40.042969 19.96875 C 40.015625 19.429688 39.996094 18.890625 39.976562 18.347656 C 39.921875 16.746094 39.929688 15.019531 39.511719 13.265625 C 39.203125 11.976562 38.664062 11.121094 38.070312 10.257812 C 37.339844 9.195312 36.734375 8.417969 35.65625 8.054688 C 34.933594 7.808594 34.203125 7.738281 33.488281 7.679688 C 31.65625 7.535156 29.710938 7.332031 27.699219 7.257812 C 27.324219 7.246094 26.949219 7.242188 26.574219 7.242188 Z M 26.574219 7.242188 "/>
<path style=" stroke:none;fill-rule:nonzero;fill:rgb(0.392157%,0.392157%,0.392157%);fill-opacity:1;" d="M 18.601562 40.683594 C 16.800781 40.683594 15.03125 40.503906 13.558594 39.824219 C 12.664062 39.414062 11.894531 38.855469 11.046875 38.21875 C 10.4375 37.757812 9.75 37.242188 9.300781 36.507812 C 9.015625 36.042969 8.847656 35.519531 8.710938 35.066406 C 7.398438 30.648438 7.277344 25.859375 7.34375 21.339844 C 7.375 19.304688 7.492188 17.25 7.699219 15.234375 C 7.734375 14.863281 7.777344 14.496094 7.839844 14.128906 C 8.003906 13.171875 8.308594 12.320312 8.746094 11.601562 C 9.03125 11.128906 9.398438 10.675781 9.835938 10.253906 C 10.507812 9.605469 11.292969 9.082031 12.175781 8.6875 C 13.773438 7.976562 15.539062 7.789062 17.351562 7.640625 L 21.023438 7.355469 C 23.207031 7.175781 25.46875 6.992188 27.710938 7.074219 C 29.707031 7.144531 31.679688 7.289062 33.515625 7.433594 C 34.230469 7.488281 34.964844 7.546875 35.683594 7.789062 C 36.75 8.152344 37.738281 8.929688 38.460938 9.988281 C 39.050781 10.84375 39.484375 11.886719 39.789062 13.171875 C 40.210938 14.929688 40.269531 16.738281 40.324219 18.332031 L 40.328125 18.484375 C 40.347656 18.972656 40.363281 19.464844 40.386719 19.953125 C 40.449219 21.148438 40.503906 22.34375 40.539062 23.542969 C 40.621094 26.359375 40.589844 28.683594 40.441406 30.855469 C 40.292969 33.078125 39.921875 35.589844 38.296875 37.316406 C 35.953125 39.808594 32.21875 40.140625 29.613281 40.171875 C 29.222656 40.175781 28.832031 40.171875 28.445312 40.164062 C 28.121094 40.160156 27.808594 40.152344 27.472656 40.15625 C 26.09375 40.160156 24.691406 40.285156 23.335938 40.410156 C 22.359375 40.496094 21.347656 40.589844 20.347656 40.632812 C 19.769531 40.664062 19.183594 40.683594 18.601562 40.683594 Z M 26.59375 8.015625 C 24.757812 8.015625 22.90625 8.164062 21.101562 8.3125 L 17.433594 8.597656 C 15.636719 8.742188 14.027344 8.914062 12.566406 9.566406 C 11.789062 9.910156 11.09375 10.375 10.503906 10.945312 C 10.125 11.308594 9.808594 11.699219 9.566406 12.101562 C 9.191406 12.714844 8.929688 13.453125 8.785156 14.289062 C 8.726562 14.632812 8.6875 14.980469 8.652344 15.332031 C 8.449219 17.320312 8.332031 19.34375 8.304688 21.355469 C 8.238281 25.796875 8.355469 30.5 9.632812 34.792969 C 9.753906 35.207031 9.890625 35.640625 10.117188 36.007812 C 10.472656 36.585938 11.058594 37.027344 11.625 37.453125 C 12.425781 38.054688 13.152344 38.585938 13.960938 38.957031 C 15.722656 39.765625 18.050781 39.78125 20.304688 39.679688 C 21.285156 39.632812 22.285156 39.542969 23.25 39.457031 C 24.628906 39.332031 26.050781 39.203125 27.46875 39.199219 C 27.804688 39.199219 28.128906 39.203125 28.460938 39.207031 C 28.839844 39.214844 29.222656 39.222656 29.597656 39.21875 C 32.238281 39.183594 35.53125 38.863281 37.601562 36.660156 C 39.015625 35.152344 39.347656 32.847656 39.488281 30.789062 C 39.632812 28.652344 39.664062 26.359375 39.582031 23.570312 C 39.546875 22.382812 39.492188 21.191406 39.433594 20 C 39.410156 19.507812 39.390625 19.011719 39.375 18.515625 L 39.367188 18.367188 C 39.367188 18.367188 39.367188 18.367188 39.367188 18.363281 C 39.316406 16.816406 39.257812 15.058594 38.859375 13.394531 C 38.582031 12.226562 38.195312 11.289062 37.671875 10.53125 C 37.066406 9.644531 36.25 8.992188 35.378906 8.699219 C 34.773438 8.496094 34.097656 8.441406 33.441406 8.390625 C 31.617188 8.246094 29.65625 8.105469 27.675781 8.035156 C 27.316406 8.019531 26.957031 8.015625 26.59375 8.015625 Z M 26.59375 8.015625 "/>
<path style=" stroke:none;fill-rule:nonzero;fill:rgb(0.392157%,0.392157%,0.392157%);fill-opacity:1;" d="M 26.070312 44.640625 C 25.117188 44.640625 24.160156 44.617188 23.210938 44.570312 C 22.347656 44.53125 21.476562 44.4375 20.632812 44.347656 C 19.785156 44.257812 18.90625 44.160156 18.046875 44.125 L 17.09375 44.085938 C 15.675781 44.035156 14.210938 43.980469 12.765625 43.742188 C 11.851562 43.59375 10.886719 43.386719 10.042969 42.875 C 9.429688 42.507812 8.9375 42.019531 8.460938 41.546875 L 6.65625 39.757812 C 6.210938 39.320312 5.753906 38.867188 5.410156 38.300781 C 5.007812 37.628906 4.816406 36.882812 4.683594 36.242188 C 4.207031 33.972656 4.179688 31.65625 4.222656 29.488281 C 4.25 28.152344 4.132812 26.792969 4.019531 25.476562 C 3.953125 24.699219 3.886719 23.921875 3.847656 23.136719 C 3.75 21.179688 3.691406 19.195312 3.671875 17.238281 C 3.652344 14.871094 3.722656 12.378906 4.808594 10.230469 C 5.816406 8.226562 7.722656 6.554688 10.175781 5.519531 C 12.480469 4.546875 14.964844 4.21875 17.09375 4.027344 C 17.820312 3.960938 18.550781 3.890625 19.277344 3.816406 C 20.792969 3.671875 22.359375 3.515625 23.90625 3.414062 C 25.480469 3.3125 27.109375 3.441406 28.6875 3.566406 C 29.34375 3.617188 29.996094 3.667969 30.640625 3.703125 C 33.324219 3.847656 36.367188 4.011719 38.949219 5.414062 C 41.546875 6.824219 43.417969 9.402344 43.957031 12.308594 C 44.21875 13.710938 44.253906 15.128906 44.253906 16.210938 C 44.253906 16.769531 44.246094 17.328125 44.234375 17.886719 C 44.226562 18.429688 44.214844 18.972656 44.214844 19.511719 C 44.214844 20.742188 44.25 21.988281 44.28125 23.242188 C 44.351562 25.933594 44.425781 28.714844 44.167969 31.398438 C 43.9375 33.785156 43.4375 36.140625 42.6875 38.394531 C 42.507812 38.929688 42.304688 39.496094 41.941406 39.984375 C 41.554688 40.511719 41.027344 40.894531 40.5625 41.234375 C 39.371094 42.097656 38.136719 42.996094 36.699219 43.511719 C 35.703125 43.871094 34.640625 44.027344 33.726562 44.144531 C 31.195312 44.476562 28.628906 44.640625 26.070312 44.640625 Z M 25.117188 4.339844 C 24.730469 4.339844 24.347656 4.347656 23.96875 4.375 C 22.4375 4.472656 20.875 4.625 19.367188 4.773438 C 18.640625 4.84375 17.910156 4.914062 17.179688 4.980469 C 15.125 5.167969 12.730469 5.480469 10.546875 6.402344 C 8.304688 7.351562 6.570312 8.863281 5.660156 10.660156 C 4.675781 12.621094 4.609375 14.886719 4.632812 17.230469 C 4.648438 19.171875 4.707031 21.144531 4.804688 23.085938 C 4.84375 23.859375 4.910156 24.628906 4.976562 25.394531 C 5.089844 26.734375 5.207031 28.117188 5.183594 29.503906 C 5.140625 31.613281 5.164062 33.867188 5.621094 36.042969 C 5.738281 36.605469 5.90625 37.257812 6.234375 37.804688 C 6.515625 38.265625 6.929688 38.679688 7.332031 39.078125 L 9.136719 40.863281 C 9.574219 41.296875 10.023438 41.742188 10.539062 42.050781 C 11.246094 42.476562 12.101562 42.660156 12.921875 42.792969 C 14.304688 43.019531 15.742188 43.074219 17.132812 43.125 L 18.089844 43.164062 C 18.976562 43.203125 19.871094 43.300781 20.738281 43.390625 C 21.566406 43.480469 22.421875 43.570312 23.257812 43.613281 C 26.707031 43.777344 30.183594 43.636719 33.605469 43.195312 C 34.472656 43.082031 35.46875 42.933594 36.375 42.609375 C 37.6875 42.140625 38.863281 41.285156 40 40.457031 C 40.429688 40.144531 40.875 39.824219 41.175781 39.417969 C 41.453125 39.035156 41.628906 38.554688 41.78125 38.089844 C 42.507812 35.902344 42.992188 33.621094 43.214844 31.304688 C 43.46875 28.679688 43.398438 25.925781 43.328125 23.265625 C 43.292969 22.003906 43.261719 20.75 43.261719 19.507812 C 43.261719 18.96875 43.269531 18.417969 43.28125 17.867188 C 43.289062 17.316406 43.296875 16.765625 43.296875 16.210938 C 43.296875 15.171875 43.265625 13.804688 43.019531 12.480469 C 42.542969 9.894531 40.808594 7.507812 38.496094 6.257812 C 36.101562 4.957031 33.175781 4.796875 30.59375 4.660156 C 29.941406 4.625 29.28125 4.570312 28.613281 4.519531 C 27.453125 4.429688 26.269531 4.339844 25.117188 4.339844 Z M 25.117188 4.339844 "/>
<path style=" stroke:none;fill-rule:nonzero;fill:rgb(83.92157%,89.803922%,89.803922%);fill-opacity:1;" d="M 35.347656 11.898438 C 34.621094 11.289062 33.488281 11.1875 32.613281 11.742188 C 31.953125 12.160156 31.796875 13.136719 32.164062 13.828125 C 32.777344 15 34.921875 15.785156 35.78125 14.476562 C 36.066406 14.042969 36.136719 13.484375 36.015625 12.976562 C 35.90625 12.527344 35.667969 12.164062 35.347656 11.898438 Z M 35.347656 11.898438 "/>
<path style=" stroke:none;fill-rule:nonzero;fill:rgb(0.392157%,0.392157%,0.392157%);fill-opacity:1;" d="M 34.453125 15.632812 C 34.410156 15.632812 34.367188 15.632812 34.324219 15.632812 C 33.28125 15.582031 32.191406 14.917969 31.738281 14.050781 C 31.230469 13.089844 31.507812 11.871094 32.359375 11.335938 C 33.382812 10.6875 34.738281 10.765625 35.652344 11.527344 C 36.066406 11.875 36.351562 12.335938 36.480469 12.863281 C 36.636719 13.527344 36.527344 14.210938 36.179688 14.742188 C 35.796875 15.320312 35.191406 15.632812 34.453125 15.632812 Z M 33.878906 11.859375 C 33.527344 11.859375 33.171875 11.953125 32.871094 12.144531 C 32.449219 12.410156 32.316406 13.09375 32.585938 13.605469 C 32.882812 14.171875 33.667969 14.640625 34.371094 14.675781 C 34.808594 14.6875 35.164062 14.539062 35.378906 14.214844 C 35.582031 13.910156 35.644531 13.484375 35.550781 13.085938 C 35.472656 12.761719 35.292969 12.476562 35.039062 12.261719 C 34.71875 11.996094 34.300781 11.859375 33.878906 11.859375 Z M 33.878906 11.859375 "/>
<path style=" stroke:none;fill-rule:nonzero;fill:rgb(83.92157%,89.803922%,89.803922%);fill-opacity:1;" d="M 24.386719 33.417969 C 22.753906 33.417969 21.027344 33.621094 19.640625 32.867188 C 18.828125 32.425781 18.21875 32.007812 17.789062 31.621094 C 17.617188 31.46875 17.066406 30.976562 16.941406 30.898438 C 14.628906 29.449219 14.027344 25.972656 14.113281 23.78125 C 14.164062 22.4375 14.605469 21.351562 14.929688 20.558594 C 15.367188 19.472656 15.972656 17.984375 17.210938 16.714844 C 18.582031 15.320312 20.449219 14.480469 22.617188 14.285156 C 23.464844 14.207031 24.347656 14.234375 25.21875 14.359375 C 27.128906 14.636719 28.882812 15.335938 30.289062 16.386719 C 32.042969 17.695312 33.25 19.527344 33.691406 21.546875 C 34.476562 25.164062 33.046875 29.242188 30.210938 31.464844 C 28.601562 32.726562 26.535156 33.417969 24.386719 33.417969 Z M 23.824219 17.789062 C 23.597656 17.789062 23.175781 17.929688 22.945312 17.949219 C 21.53125 18.078125 20.832031 18.085938 19.992188 18.9375 C 19.191406 19.757812 18.785156 20.828125 18.40625 21.769531 C 18.148438 22.410156 17.625 23.207031 17.597656 24 C 17.546875 25.304688 18.25 26.664062 19.453125 27.417969 C 19.753906 27.605469 19.839844 28.078125 20.125 28.335938 C 20.484375 28.660156 21.035156 28.769531 21.515625 29.03125 C 23.65625 30.191406 26.078125 30.03125 27.941406 28.570312 C 29.800781 27.113281 30.617188 24.734375 30.097656 22.335938 C 29.820312 21.058594 29.320312 19.925781 28.175781 19.070312 C 27.191406 18.335938 26.082031 18.203125 24.691406 18.003906 C 24.296875 17.945312 24.214844 17.789062 23.824219 17.789062 Z M 23.824219 17.789062 "/>
<path style=" stroke:none;fill-rule:nonzero;fill:rgb(0.392157%,0.392157%,0.392157%);fill-opacity:1;" d="M 24.382812 30.21875 C 23.316406 30.21875 22.238281 29.96875 21.289062 29.453125 C 20.8125 29.195312 20.433594 28.855469 20.070312 28.527344 C 19.78125 28.265625 19.507812 28.015625 19.199219 27.824219 C 18.007812 27.078125 17.261719 25.195312 17.3125 23.90625 C 17.339844 23.125 17.632812 22.402344 17.890625 21.765625 C 18.269531 20.828125 18.703125 19.769531 19.496094 18.957031 C 20.324219 18.113281 21.503906 17.597656 22.90625 17.472656 C 23.503906 17.417969 24.128906 17.4375 24.757812 17.527344 C 26.144531 17.726562 27.394531 18.21875 28.375 18.953125 C 29.511719 19.796875 30.289062 20.964844 30.5625 22.230469 C 31.082031 24.613281 30.082031 27.5 28.238281 28.945312 C 27.164062 29.789062 25.777344 30.21875 24.382812 30.21875 Z M 22.992188 18.425781 C 22.171875 18.5 21.023438 18.769531 20.179688 19.628906 C 19.515625 20.304688 19.140625 21.230469 18.78125 22.125 C 18.539062 22.71875 18.292969 23.332031 18.269531 23.941406 C 18.230469 24.921875 18.851562 26.476562 19.707031 27.011719 C 20.085938 27.25 20.402344 27.539062 20.710938 27.816406 C 21.050781 28.121094 21.371094 28.40625 21.742188 28.609375 C 23.585938 29.605469 26.066406 29.429688 27.644531 28.191406 C 29.222656 26.960938 30.074219 24.484375 29.628906 22.433594 C 29.402344 21.410156 28.738281 20.417969 27.800781 19.71875 C 26.945312 19.082031 25.847656 18.652344 24.621094 18.476562 C 24.066406 18.398438 23.515625 18.378906 22.992188 18.425781 Z M 22.992188 18.425781 "/>
<path style=" stroke:none;fill-rule:nonzero;fill:rgb(0.392157%,0.392157%,0.392157%);fill-opacity:1;" d="M 23.867188 34.171875 C 22.234375 34.171875 20.65625 33.847656 19.226562 33.210938 C 16.527344 32.007812 14.546875 29.804688 13.925781 27.320312 C 13.449219 25.414062 13.773438 23.480469 14.105469 22.007812 C 14.375 20.8125 14.828125 19.070312 15.601562 17.765625 C 16.269531 16.636719 17.171875 15.644531 18.214844 14.890625 C 18.890625 14.402344 19.585938 14.039062 20.28125 13.808594 C 20.28125 13.808594 20.371094 13.78125 20.375 13.777344 C 22.371094 13.15625 24.566406 13.542969 26.328125 13.855469 C 28.660156 14.269531 31.089844 16.078125 32.464844 17.691406 C 32.839844 18.132812 33.101562 18.511719 33.292969 18.898438 C 33.707031 19.71875 33.828125 20.628906 33.894531 21.484375 C 34.089844 23.933594 33.878906 26.023438 33.253906 27.878906 C 32.265625 30.800781 30.386719 32.765625 27.816406 33.558594 C 26.5 33.96875 25.167969 34.167969 23.867188 34.171875 Z M 20.519531 14.234375 L 20.585938 14.71875 C 19.976562 14.917969 19.371094 15.238281 18.773438 15.667969 C 17.835938 16.34375 17.027344 17.238281 16.425781 18.253906 C 15.722656 19.441406 15.296875 21.085938 15.039062 22.21875 C 14.730469 23.589844 14.429688 25.378906 14.855469 27.085938 C 15.40625 29.292969 17.1875 31.253906 19.617188 32.335938 C 21.96875 33.386719 24.78125 33.496094 27.535156 32.644531 C 30.394531 31.761719 31.730469 29.394531 32.347656 27.570312 C 32.929688 25.839844 33.125 23.875 32.941406 21.5625 C 32.878906 20.800781 32.777344 20.003906 32.4375 19.328125 C 32.28125 19.011719 32.058594 18.691406 31.738281 18.3125 C 30.515625 16.878906 28.246094 15.167969 26.164062 14.796875 C 24.414062 14.488281 22.433594 14.136719 20.664062 14.691406 Z M 20.519531 14.234375 L 20.527344 14.234375 Z M 20.519531 14.234375 "/>
</g>
</svg>
